<svg xmlns="http://www.w3.org/2000/svg" width="375" viewBox="0 0 375 375" height="375" version="1.0"><defs><clipPath id="a"><path d="M 65.625 0 L 309.375 0 L 309.375 375 L 65.625 375 Z M 65.625 0"/></clipPath></defs><g clip-path="url(#a)"><path fill="#DF6060" d="M 300.558594 8.21875 C 296.277344 4.339844 291.382812 1.6875 286.082031 0.667969 C 283.835938 0.257812 281.59375 0.0585938 279.351562 0.0585938 L 95.78125 0.0585938 C 93.335938 0.0585938 91.089844 0.257812 88.84375 0.667969 C 83.542969 1.6875 78.644531 4.339844 74.363281 8.21875 C 68.652344 13.722656 65.597656 20.453125 65.597656 28.199219 L 65.597656 346.792969 C 65.597656 354.546875 68.652344 361.273438 74.363281 366.78125 C 80.28125 372.289062 87.214844 374.941406 95.78125 374.941406 L 279.351562 374.941406 C 287.714844 374.941406 294.644531 372.289062 300.558594 366.78125 C 306.476562 361.273438 309.328125 354.546875 309.328125 346.792969 L 309.328125 28.199219 C 309.328125 20.453125 306.476562 13.722656 300.558594 8.21875"/><path fill="#F8F3F1" d="M 286.082031 0.667969 C 283.835938 0.257812 281.59375 0.0585938 279.351562 0.0585938 L 95.78125 0.0585938 C 93.335938 0.0585938 91.089844 0.257812 88.84375 0.667969 C 83.542969 1.6875 78.644531 4.339844 74.363281 8.21875 C 68.652344 13.722656 65.597656 20.453125 65.597656 28.199219 L 65.597656 346.792969 C 65.597656 354.546875 68.652344 361.273438 74.363281 366.78125 C 80.28125 372.289062 87.214844 374.941406 95.78125 374.941406 L 279.351562 374.941406 C 287.714844 374.941406 294.644531 372.289062 300.558594 366.78125 C 306.476562 361.273438 309.328125 354.546875 309.328125 346.792969 L 309.328125 28.199219 C 309.328125 20.453125 306.476562 13.722656 300.558594 8.21875 C 296.277344 4.339844 291.382812 1.6875 286.082031 0.667969 Z M 280.980469 20.25 C 281.179688 20.453125 281.59375 20.859375 282 21.269531 C 283.835938 23.105469 285.46875 25.347656 286.488281 27.589844 L 283.019531 31.265625 L 276.488281 24.734375 Z M 278.734375 18.414062 L 274.449219 22.496094 L 267.925781 16.167969 L 269.765625 14.128906 C 273.023438 14.949219 275.882812 16.375 278.734375 18.414062 Z M 285.0625 33.304688 L 287.714844 30.652344 C 288.527344 32.691406 288.9375 34.933594 289.136719 37.382812 Z M 274.449219 26.773438 L 280.980469 33.304688 L 274.449219 39.824219 L 267.925781 33.304688 Z M 289.339844 41.664062 L 289.339844 42.070312 L 283.019531 48.1875 L 276.488281 41.867188 L 283.019531 35.34375 Z M 283.019531 52.472656 L 287.914062 57.574219 L 281.59375 63.898438 L 276.488281 59.003906 Z M 289.339844 54.714844 L 285.0625 50.4375 L 289.339844 46.152344 Z M 274.449219 43.90625 L 280.980469 50.4375 L 274.449219 56.960938 L 267.925781 50.4375 Z M 283.636719 83.269531 L 289.339844 77.5625 L 289.339844 88.984375 Z M 273.023438 76.746094 L 279.351562 83.269531 L 273.023438 89.800781 L 266.5 83.269531 Z M 279.351562 66.140625 L 273.023438 72.664062 L 267.925781 67.566406 L 274.449219 61.039062 Z M 289.339844 71.851562 L 283.636719 66.140625 L 289.339844 60.429688 Z M 281.59375 68.179688 L 287.914062 74.707031 L 281.59375 81.230469 L 275.066406 74.707031 Z M 246.714844 16.167969 L 240.1875 22.496094 L 233.660156 16.167969 L 236.109375 13.515625 L 244.0625 13.515625 Z M 248.546875 13.921875 L 248.140625 13.515625 L 248.957031 13.515625 Z M 231.621094 13.921875 L 231.210938 13.515625 L 232.03125 13.515625 Z M 237.941406 24.734375 L 231.621094 31.265625 L 225.089844 24.734375 L 231.621094 18.210938 Z M 248.753906 31.265625 L 242.226562 24.734375 L 248.753906 18.210938 L 255.277344 24.734375 Z M 240.1875 26.773438 L 246.714844 33.304688 L 240.1875 39.824219 L 233.660156 33.304688 Z M 265.886719 13.921875 L 265.480469 13.515625 C 265.683594 13.515625 265.886719 13.515625 266.292969 13.722656 Z M 261.199219 13.515625 L 263.644531 16.167969 L 257.320312 22.496094 L 250.792969 16.167969 L 253.238281 13.515625 Z M 250.792969 33.304688 L 257.320312 26.773438 L 263.644531 33.304688 L 257.320312 39.824219 Z M 265.886719 31.265625 L 259.359375 24.734375 L 265.886719 18.210938 L 272.410156 24.734375 Z M 199.394531 16.167969 L 201.84375 13.515625 L 209.59375 13.515625 L 212.246094 16.167969 L 205.921875 22.496094 Z M 195.109375 16.167969 L 190.210938 20.859375 L 183.691406 14.539062 L 184.707031 13.515625 L 192.664062 13.515625 Z M 196.742188 13.515625 L 197.558594 13.515625 L 197.152344 13.921875 Z M 192.460938 23.105469 L 197.152344 18.210938 L 203.675781 24.734375 L 198.785156 29.625 Z M 190.210938 25.144531 L 196.742188 31.667969 L 190.210938 38.195312 L 183.691406 31.667969 Z M 201.027344 31.667969 L 205.921875 26.773438 L 212.246094 33.304688 L 207.554688 38.195312 Z M 218.972656 13.515625 L 226.929688 13.515625 L 229.375 16.167969 L 222.851562 22.496094 L 216.527344 16.167969 Z M 214.488281 13.921875 L 214.082031 13.515625 L 214.691406 13.515625 Z M 214.285156 18.210938 L 220.8125 24.734375 L 214.285156 31.265625 L 207.757812 24.734375 Z M 216.527344 33.304688 L 222.851562 26.773438 L 229.375 33.304688 L 222.851562 39.824219 Z M 221.011719 41.867188 L 215.914062 46.761719 L 209.386719 40.238281 L 214.488281 35.34375 Z M 215.914062 50.84375 L 222.445312 57.367188 L 215.914062 63.898438 L 209.386719 57.367188 Z M 224.484375 55.328125 L 218.160156 48.804688 L 223.054688 43.90625 L 229.578125 50.4375 Z M 198.785156 50.84375 L 205.308594 57.367188 L 198.785156 63.898438 L 192.460938 57.367188 Z M 190.210938 42.277344 L 196.742188 48.804688 L 190.210938 55.328125 L 183.691406 48.804688 Z M 201.027344 48.804688 L 207.554688 42.277344 L 213.875 48.804688 L 207.554688 55.328125 Z M 205.308594 40.238281 L 198.785156 46.761719 L 192.460938 40.238281 L 198.785156 33.707031 Z M 201.027344 83.070312 L 207.554688 76.542969 L 213.875 83.070312 L 207.554688 89.597656 Z M 190.210938 76.542969 L 196.742188 83.070312 L 190.210938 89.597656 L 183.691406 83.070312 Z M 196.742188 65.9375 L 190.210938 72.464844 L 183.691406 65.9375 L 190.210938 59.613281 Z M 198.785156 67.980469 L 205.308594 74.503906 L 198.785156 81.03125 L 192.460938 74.503906 Z M 207.554688 72.464844 L 201.027344 65.9375 L 207.554688 59.613281 L 213.875 65.9375 Z M 218.160156 83.070312 L 224.484375 76.542969 L 231.011719 83.070312 L 224.484375 89.597656 Z M 224.484375 72.464844 L 218.160156 65.9375 L 224.484375 59.613281 L 231.011719 65.9375 Z M 209.386719 74.503906 L 215.914062 67.980469 L 222.445312 74.503906 L 215.914062 81.03125 Z M 265.886719 48.1875 L 259.359375 41.867188 L 265.886719 35.34375 L 272.410156 41.867188 Z M 263.644531 50.4375 L 257.320312 56.960938 L 250.792969 50.4375 L 257.320312 43.90625 Z M 259.359375 59.003906 L 265.886719 52.472656 L 272.410156 59.003906 L 265.886719 65.527344 Z M 246.714844 50.4375 L 240.1875 56.960938 L 233.660156 50.4375 L 240.1875 43.90625 Z M 242.226562 59.003906 L 248.546875 52.472656 L 255.078125 59.003906 L 248.546875 65.527344 Z M 231.621094 52.472656 L 237.941406 59.003906 L 233.25 63.898438 L 226.726562 57.367188 Z M 237.941406 41.867188 L 231.621094 48.1875 L 225.089844 41.867188 L 231.621094 35.34375 Z M 248.753906 48.1875 L 242.226562 41.867188 L 248.546875 35.34375 L 255.277344 41.867188 Z M 233.25 67.980469 L 239.578125 74.503906 L 233.25 81.03125 L 226.726562 74.503906 Z M 241.816406 76.542969 L 248.140625 83.070312 L 241.816406 89.597656 L 235.289062 83.070312 Z M 246.714844 67.566406 L 241.816406 72.464844 L 235.289062 65.9375 L 240.1875 61.039062 Z M 243.855469 74.503906 L 248.753906 69.609375 L 255.277344 76.136719 L 250.179688 81.03125 Z M 264.253906 81.230469 L 259.359375 76.136719 L 265.886719 69.609375 L 270.785156 74.707031 Z M 252.425781 83.070312 L 257.320312 78.175781 L 262.210938 83.269531 L 257.523438 88.171875 Z M 257.320312 74.097656 L 250.792969 67.566406 L 257.320312 61.039062 L 263.644531 67.566406 Z M 265.886719 96.734375 L 259.5625 90.207031 L 264.457031 85.308594 L 270.984375 91.839844 Z M 257.523438 105.304688 L 251 98.773438 L 257.523438 92.25 L 263.84375 98.773438 Z M 259.5625 107.34375 L 265.886719 100.8125 L 272.410156 107.34375 L 265.886719 113.863281 Z M 239.578125 91.636719 L 233.25 98.160156 L 226.726562 91.636719 L 233.25 85.308594 Z M 242.429688 107.34375 L 248.753906 100.8125 L 255.277344 107.34375 L 248.753906 113.863281 Z M 233.25 102.238281 L 238.152344 107.34375 L 231.824219 113.863281 L 226.726562 108.769531 Z M 248.753906 96.734375 L 243.855469 91.636719 L 250.179688 85.308594 L 255.277344 90.207031 Z M 241.617188 93.882812 L 246.714844 98.773438 L 240.1875 105.304688 L 235.085938 100.40625 Z M 240.1875 126.714844 L 246.714844 133.039062 L 240.1875 139.566406 L 233.867188 133.039062 Z M 231.824219 117.945312 L 238.152344 124.476562 L 231.824219 131 L 225.300781 124.476562 Z M 246.714844 115.90625 L 240.1875 122.4375 L 233.867188 115.90625 L 240.1875 109.585938 Z M 242.429688 124.476562 L 248.753906 117.945312 L 255.277344 124.476562 L 248.753906 131 Z M 251 133.039062 L 257.523438 126.714844 L 263.84375 133.039062 L 257.523438 139.566406 Z M 257.523438 122.4375 L 251 115.90625 L 257.523438 109.585938 L 263.84375 115.90625 Z M 259.5625 124.476562 L 265.886719 117.945312 L 272.410156 124.675781 L 265.886719 131 Z M 222.445312 91.636719 L 215.914062 98.160156 L 209.386719 91.636719 L 215.914062 85.308594 Z M 215.914062 102.238281 L 222.445312 108.769531 L 215.914062 115.296875 L 209.386719 108.769531 Z M 218.160156 100.40625 L 224.484375 93.882812 L 231.011719 100.40625 L 224.484375 106.730469 Z M 207.554688 106.730469 L 201.027344 100.40625 L 207.554688 93.882812 L 213.875 100.40625 Z M 198.785156 102.238281 L 205.308594 108.769531 L 198.785156 115.296875 L 192.460938 108.769531 Z M 196.742188 100.40625 L 190.210938 106.730469 L 183.691406 100.40625 L 190.210938 93.882812 Z M 205.308594 91.636719 L 198.785156 98.160156 L 192.460938 91.636719 L 198.785156 85.308594 Z M 201.027344 134.46875 L 207.554688 127.941406 L 212.449219 133.039062 L 205.921875 139.566406 Z M 205.308594 126.105469 L 198.785156 132.425781 L 192.460938 126.105469 L 198.785156 119.582031 Z M 190.210938 128.148438 L 196.742188 134.671875 L 190.210938 140.992188 L 183.691406 134.671875 Z M 196.742188 117.339844 L 190.210938 123.859375 L 183.691406 117.339844 L 190.210938 111.011719 Z M 207.554688 123.859375 L 201.027344 117.339844 L 207.554688 111.011719 L 213.875 117.339844 Z M 216.734375 133.039062 L 223.054688 126.714844 L 229.578125 133.039062 L 223.054688 139.566406 Z M 223.054688 122.4375 L 218.160156 117.339844 L 224.484375 111.011719 L 229.578125 115.90625 Z M 214.488281 131 L 209.386719 126.105469 L 215.914062 119.582031 L 221.011719 124.476562 Z M 221.011719 141.605469 L 214.488281 148.136719 L 207.960938 141.605469 L 214.488281 135.285156 Z M 214.488281 152.417969 L 221.011719 158.742188 L 214.488281 165.265625 L 207.960938 158.742188 Z M 216.734375 150.378906 L 223.054688 143.851562 L 229.578125 150.378906 L 223.054688 156.699219 Z M 205.921875 156.699219 L 199.394531 150.378906 L 205.921875 143.851562 L 212.449219 150.378906 Z M 195.316406 150.378906 L 188.785156 156.699219 L 183.691406 151.804688 L 190.210938 145.277344 Z M 191.03125 158.742188 L 197.355469 152.417969 L 203.882812 158.742188 L 197.355469 165.265625 Z M 197.355469 148.136719 L 192.460938 143.03125 L 198.785156 136.710938 L 203.882812 141.605469 Z M 199.394531 184.4375 L 205.921875 178.117188 L 212.449219 184.644531 L 206.128906 190.96875 Z M 197.355469 182.398438 L 191.03125 176.078125 L 197.355469 169.550781 L 203.882812 176.078125 Z M 188.785156 178.117188 L 195.316406 184.644531 L 188.785156 190.96875 L 182.261719 184.644531 Z M 195.316406 167.304688 L 188.785156 173.835938 L 182.261719 167.304688 L 188.785156 160.984375 Z M 205.921875 173.835938 L 199.394531 167.304688 L 205.921875 160.984375 L 212.449219 167.304688 Z M 216.734375 184.644531 L 223.054688 178.117188 L 229.578125 184.644531 L 223.054688 190.96875 Z M 223.054688 173.835938 L 216.734375 167.304688 L 223.054688 160.984375 L 229.578125 167.304688 Z M 214.488281 182.398438 L 207.960938 176.078125 L 214.488281 169.550781 L 221.011719 176.078125 Z M 265.886719 148.136719 L 259.5625 141.605469 L 265.886719 135.285156 L 272.410156 141.605469 Z M 263.84375 150.378906 L 257.523438 156.699219 L 251 150.378906 L 257.523438 143.851562 Z M 259.5625 158.742188 L 265.886719 152.417969 L 272.410156 158.742188 L 265.886719 165.265625 Z M 242.429688 158.742188 L 248.753906 152.417969 L 255.277344 158.742188 L 248.753906 165.265625 Z M 246.714844 150.378906 L 240.1875 156.699219 L 233.867188 150.378906 L 240.1875 143.851562 Z M 231.824219 152.417969 L 238.152344 158.742188 L 231.824219 165.265625 L 225.300781 158.742188 Z M 238.152344 141.605469 L 231.824219 148.136719 L 225.300781 141.605469 L 231.824219 135.285156 Z M 248.753906 148.136719 L 242.429688 141.605469 L 248.753906 135.285156 L 255.277344 141.605469 Z M 248.753906 182.398438 L 242.429688 176.078125 L 248.753906 169.550781 L 255.277344 176.078125 Z M 240.1875 178.117188 L 246.714844 184.644531 L 240.1875 190.96875 L 233.867188 184.644531 Z M 238.152344 176.078125 L 231.824219 182.398438 L 225.300781 176.078125 L 231.824219 169.550781 Z M 246.714844 167.304688 L 240.1875 173.835938 L 233.867188 167.304688 L 240.1875 160.984375 Z M 265.886719 182.398438 L 259.5625 176.078125 L 265.886719 169.550781 L 272.410156 176.078125 Z M 251 184.4375 L 257.523438 178.117188 L 263.84375 184.644531 L 257.523438 190.96875 Z M 257.523438 173.835938 L 251 167.304688 L 257.523438 160.984375 L 263.84375 167.304688 Z M 287.914062 91.839844 L 281.59375 98.367188 L 275.066406 91.839844 L 281.59375 85.308594 Z M 279.550781 100.40625 L 274.449219 105.304688 L 268.128906 98.773438 L 273.023438 93.882812 Z M 281.59375 102.445312 L 287.914062 108.972656 L 283.222656 113.863281 L 276.695312 107.34375 Z M 289.339844 106.117188 L 283.636719 100.40625 L 289.339844 94.695312 Z M 283.222656 117.945312 L 289.339844 124.265625 L 289.339844 124.882812 L 283.222656 131 L 276.695312 124.476562 Z M 289.339844 119.984375 L 285.261719 115.90625 L 289.339844 111.824219 Z M 285.261719 133.039062 L 289.339844 128.960938 L 289.339844 137.117188 Z M 280.980469 115.90625 L 274.449219 122.4375 L 268.128906 115.90625 L 274.449219 109.585938 Z M 274.449219 126.714844 L 280.980469 133.039062 L 274.449219 139.566406 L 268.128906 133.039062 Z M 289.339844 141.402344 L 289.339844 142.019531 L 283.222656 148.136719 L 276.695312 141.605469 L 283.222656 135.285156 Z M 289.339844 158.539062 L 289.339844 159.148438 L 283.222656 165.265625 L 276.695312 158.742188 L 283.222656 152.417969 Z M 289.339844 154.253906 L 285.261719 150.378906 L 289.339844 146.097656 Z M 274.449219 143.851562 L 280.980469 150.378906 L 274.449219 156.699219 L 268.128906 150.378906 Z M 285.261719 167.304688 L 289.339844 163.429688 L 289.339844 171.386719 Z M 289.339844 176.28125 L 283.222656 182.398438 L 276.695312 176.078125 L 283.222656 169.550781 L 289.339844 175.667969 Z M 285.261719 184.644531 L 289.339844 180.566406 L 289.339844 188.515625 Z M 274.449219 178.117188 L 280.980469 184.644531 L 274.449219 190.96875 L 268.128906 184.644531 Z M 280.980469 167.304688 L 274.449219 173.835938 L 268.128906 167.304688 L 274.449219 160.984375 Z M 157.988281 23.105469 L 164.515625 16.574219 L 171.042969 23.105469 L 164.515625 29.625 Z M 161.457031 13.515625 L 162.476562 14.539062 L 155.953125 21.066406 L 149.421875 14.539062 L 150.445312 13.515625 Z M 147.378906 16.574219 L 153.914062 23.105469 L 147.378906 29.625 L 140.859375 23.105469 Z M 149.421875 31.667969 L 155.953125 25.144531 L 162.476562 31.667969 L 155.953125 38.195312 Z M 173.082031 25.144531 L 179.609375 31.667969 L 173.082031 38.195312 L 166.761719 31.667969 Z M 181.652344 29.625 L 175.324219 23.105469 L 181.652344 16.574219 L 188.175781 23.105469 Z M 178.792969 13.515625 L 179.609375 14.539062 L 173.082031 20.859375 L 166.761719 14.539062 L 167.574219 13.515625 Z M 123.316406 22.496094 L 116.785156 16.167969 L 119.238281 13.515625 L 127.191406 13.515625 L 129.636719 16.167969 Z M 110.058594 13.515625 L 112.707031 16.167969 L 106.183594 22.496094 L 99.65625 16.167969 C 102.714844 14.539062 106.386719 13.722656 110.058594 13.515625 Z M 114.339844 13.515625 L 115.15625 13.515625 L 114.746094 13.921875 Z M 114.746094 31.265625 L 108.222656 24.734375 L 114.542969 18.210938 L 121.277344 24.734375 Z M 106.183594 26.773438 L 112.707031 33.304688 L 106.183594 39.824219 L 99.65625 33.304688 Z M 116.785156 33.304688 L 123.316406 26.773438 L 128.007812 31.667969 L 121.683594 38.195312 Z M 145.339844 14.539062 L 138.816406 20.859375 L 133.925781 16.167969 L 136.371094 13.515625 L 144.328125 13.515625 Z M 131.882812 13.921875 L 131.269531 13.515625 L 132.289062 13.515625 Z M 138.816406 25.144531 L 145.339844 31.667969 L 138.816406 38.195312 L 132.289062 31.667969 Z M 131.882812 18.210938 L 136.78125 23.105469 L 130.25 29.625 L 125.355469 24.734375 Z M 130.25 50.84375 L 136.78125 57.367188 L 130.25 63.898438 L 123.722656 57.367188 Z M 132.289062 48.804688 L 138.816406 42.277344 L 145.339844 48.804688 L 138.816406 55.328125 Z M 136.78125 40.238281 L 130.25 46.761719 L 123.722656 40.238281 L 130.25 33.707031 Z M 121.683594 55.328125 L 115.15625 48.804688 L 121.683594 42.277344 L 128.210938 48.804688 Z M 106.589844 57.367188 L 113.117188 50.84375 L 119.644531 57.367188 L 113.117188 63.898438 Z M 106.183594 43.90625 L 111.078125 48.804688 L 104.546875 55.328125 L 99.65625 50.4375 Z M 113.117188 46.761719 L 108.222656 41.867188 L 114.746094 35.34375 L 119.644531 40.238281 Z M 115.15625 83.070312 L 121.683594 76.542969 L 128.007812 83.070312 L 121.683594 89.597656 Z M 121.683594 72.464844 L 115.15625 65.9375 L 121.683594 59.613281 L 128.007812 65.9375 Z M 106.589844 74.503906 L 113.117188 67.980469 L 119.644531 74.503906 L 113.117188 81.03125 Z M 136.78125 74.503906 L 130.25 81.03125 L 123.722656 74.503906 L 130.25 67.980469 Z M 138.816406 76.542969 L 145.339844 83.070312 L 138.816406 89.597656 L 132.289062 83.070312 Z M 145.339844 65.9375 L 138.816406 72.464844 L 132.289062 65.9375 L 138.816406 59.613281 Z M 181.652344 46.761719 L 175.324219 40.238281 L 181.652344 33.707031 L 188.175781 40.238281 Z M 179.609375 48.804688 L 173.082031 55.328125 L 166.761719 48.804688 L 173.082031 42.277344 Z M 175.324219 57.367188 L 181.652344 50.84375 L 188.175781 57.367188 L 181.652344 63.898438 Z M 157.988281 57.367188 L 164.515625 50.84375 L 171.042969 57.367188 L 164.515625 63.898438 Z M 147.378906 50.84375 L 153.914062 57.367188 L 147.378906 63.898438 L 140.859375 57.367188 Z M 153.914062 40.238281 L 147.378906 46.761719 L 140.859375 40.238281 L 147.378906 33.707031 Z M 149.421875 48.804688 L 155.953125 42.277344 L 162.476562 48.804688 L 155.953125 55.328125 Z M 164.515625 46.761719 L 157.988281 40.238281 L 164.515625 33.707031 L 171.042969 40.238281 Z M 149.421875 83.070312 L 155.953125 76.542969 L 162.476562 83.070312 L 155.953125 89.597656 Z M 147.378906 67.980469 L 153.914062 74.503906 L 147.378906 81.03125 L 140.859375 74.503906 Z M 155.953125 72.464844 L 149.421875 65.9375 L 155.953125 59.613281 L 162.476562 65.9375 Z M 157.988281 74.503906 L 164.515625 67.980469 L 171.042969 74.503906 L 164.515625 81.03125 Z M 175.324219 74.503906 L 181.652344 67.980469 L 188.175781 74.503906 L 181.652344 81.03125 Z M 173.082031 76.542969 L 179.609375 83.070312 L 173.082031 89.597656 L 166.761719 83.070312 Z M 179.609375 65.9375 L 173.082031 72.464844 L 166.761719 65.9375 L 173.082031 59.613281 Z M 103.941406 24.734375 L 97.617188 31.265625 L 91.089844 24.734375 L 97.617188 18.210938 Z M 88.84375 26.773438 L 95.375 33.304688 L 88.84375 39.824219 L 85.785156 36.566406 C 86.195312 33.097656 87.214844 30.039062 88.640625 26.980469 Z M 103.941406 41.867188 L 97.617188 48.1875 L 91.089844 41.867188 L 97.617188 35.34375 Z M 85.785156 47.171875 L 88.84375 43.90625 L 95.375 50.4375 L 88.84375 56.960938 L 85.785156 53.496094 Z M 85.785156 43.089844 L 85.785156 40.644531 L 87.011719 41.867188 Z M 85.785156 60.226562 L 85.785156 57.78125 L 87.011719 59.003906 Z M 97.617188 52.472656 L 102.308594 57.367188 L 95.980469 63.898438 L 91.089844 59.003906 Z M 104.546875 72.464844 L 98.023438 65.9375 L 104.546875 59.613281 L 111.078125 65.9375 Z M 95.980469 67.980469 L 102.308594 74.503906 L 95.980469 81.03125 L 89.457031 74.503906 Z M 87.417969 72.464844 L 85.785156 70.832031 L 85.785156 64.304688 L 88.84375 61.039062 L 93.945312 65.9375 Z M 87.417969 76.542969 L 93.945312 83.070312 L 87.417969 89.597656 L 85.785156 87.761719 L 85.785156 78.378906 Z M 98.023438 83.070312 L 104.546875 76.542969 L 111.078125 83.070312 L 104.546875 89.597656 Z M 102.308594 91.636719 L 95.980469 98.160156 L 89.457031 91.636719 L 95.980469 85.308594 Z M 85.785156 95.507812 L 87.214844 93.882812 L 93.746094 100.40625 L 88.84375 105.304688 L 85.785156 102.039062 Z M 85.785156 108.359375 L 85.785156 106.320312 L 86.804688 107.34375 Z M 95.980469 102.238281 L 102.308594 108.769531 L 97.414062 113.863281 L 90.882812 107.34375 Z M 104.546875 106.730469 L 98.023438 100.40625 L 104.546875 93.882812 L 111.078125 100.40625 Z M 97.414062 117.945312 L 103.941406 124.476562 L 97.414062 131 L 90.882812 124.476562 Z M 85.785156 123.453125 L 86.804688 124.476562 L 85.785156 125.699219 Z M 88.84375 122.4375 L 85.785156 119.171875 L 85.785156 112.644531 L 88.84375 109.585938 L 95.375 115.90625 Z M 85.785156 136.507812 L 85.785156 129.78125 L 88.84375 126.714844 L 95.375 133.039062 L 88.84375 139.566406 Z M 99.453125 115.90625 L 104.546875 111.011719 L 111.078125 117.339844 L 105.980469 122.4375 Z M 103.734375 141.605469 L 97.414062 148.136719 L 90.882812 141.605469 L 97.414062 135.285156 Z M 85.785156 146.910156 L 88.84375 143.851562 L 95.375 150.378906 L 88.84375 156.699219 L 85.785156 153.644531 Z M 85.785156 142.832031 L 85.785156 140.585938 L 86.804688 141.605469 Z M 85.785156 159.964844 L 85.785156 157.722656 L 86.804688 158.742188 Z M 97.414062 152.417969 L 103.734375 158.742188 L 97.414062 165.265625 L 90.882812 158.742188 Z M 88.84375 173.835938 L 85.785156 170.570312 L 85.785156 164.042969 L 88.84375 160.984375 L 95.375 167.304688 Z M 86.804688 176.078125 L 85.785156 177.101562 L 85.785156 174.851562 Z M 85.785156 181.175781 L 88.84375 178.117188 L 95.375 184.644531 L 88.84375 190.96875 L 85.785156 187.902344 Z M 103.941406 176.078125 L 97.414062 182.398438 L 90.882812 176.078125 L 97.414062 169.550781 Z M 173.082031 93.882812 L 179.609375 100.40625 L 173.082031 106.730469 L 166.761719 100.40625 Z M 175.324219 108.769531 L 181.652344 102.238281 L 188.175781 108.769531 L 181.652344 115.296875 Z M 181.652344 98.160156 L 175.324219 91.636719 L 181.652344 85.308594 L 188.175781 91.636719 Z M 157.988281 108.769531 L 164.515625 102.238281 L 171.042969 108.769531 L 164.515625 115.296875 Z M 155.953125 106.730469 L 149.421875 100.40625 L 155.953125 93.882812 L 162.476562 100.40625 Z M 147.378906 102.238281 L 153.914062 108.769531 L 147.378906 115.296875 L 140.859375 108.769531 Z M 153.914062 91.636719 L 147.378906 98.160156 L 140.859375 91.636719 L 147.378906 85.308594 Z M 164.515625 98.160156 L 157.988281 91.636719 L 164.515625 85.308594 L 171.042969 91.636719 Z M 164.515625 132.425781 L 157.988281 126.105469 L 164.515625 119.582031 L 171.042969 126.105469 Z M 149.421875 134.46875 L 155.953125 127.941406 L 162.476562 134.671875 L 155.953125 140.992188 Z M 153.914062 126.105469 L 147.378906 132.425781 L 140.859375 126.105469 L 147.378906 119.582031 Z M 155.953125 123.859375 L 149.421875 117.339844 L 155.953125 111.011719 L 162.476562 117.339844 Z M 179.609375 117.339844 L 173.082031 123.859375 L 166.761719 117.339844 L 173.082031 111.011719 Z M 181.652344 132.425781 L 175.324219 126.105469 L 181.652344 119.582031 L 188.175781 126.105469 Z M 173.082031 128.148438 L 179.609375 134.671875 L 173.082031 140.992188 L 166.761719 134.671875 Z M 136.78125 91.636719 L 130.25 98.160156 L 123.722656 91.636719 L 130.25 85.308594 Z M 138.816406 93.882812 L 145.339844 100.40625 L 138.816406 106.730469 L 132.289062 100.40625 Z M 130.25 102.238281 L 136.78125 108.769531 L 130.25 115.296875 L 123.722656 108.769531 Z M 121.683594 106.730469 L 115.15625 100.40625 L 121.683594 93.882812 L 128.210938 100.40625 Z M 106.589844 108.769531 L 113.117188 102.238281 L 119.644531 108.769531 L 113.117188 115.296875 Z M 113.117188 98.160156 L 106.589844 91.636719 L 113.117188 85.308594 L 119.644531 91.636719 Z M 121.683594 123.859375 L 115.15625 117.339844 L 121.683594 111.011719 L 128.007812 117.339844 Z M 116.585938 133.039062 L 121.683594 128.148438 L 128.007812 134.671875 L 123.109375 139.566406 Z M 105.980469 126.714844 L 112.507812 133.039062 L 105.980469 139.566406 L 99.453125 133.039062 Z M 108.019531 124.476562 L 113.117188 119.582031 L 119.644531 126.105469 L 114.542969 131 Z M 136.78125 126.105469 L 130.25 132.425781 L 123.722656 126.105469 L 130.25 119.582031 Z M 138.816406 128.148438 L 145.339844 134.671875 L 138.816406 140.992188 L 132.289062 134.671875 Z M 145.339844 117.339844 L 138.816406 123.859375 L 132.289062 117.339844 L 138.816406 111.011719 Z M 136.78125 143.03125 L 131.679688 148.136719 L 125.355469 141.605469 L 130.25 136.710938 Z M 138.816406 145.277344 L 145.339844 151.804688 L 140.246094 156.699219 L 133.714844 150.378906 Z M 131.679688 152.417969 L 138.210938 158.742188 L 131.679688 165.265625 L 125.355469 158.742188 Z M 123.109375 156.699219 L 116.585938 150.378906 L 123.109375 143.851562 L 129.636719 150.378906 Z M 108.019531 158.742188 L 114.542969 152.417969 L 121.070312 158.742188 L 114.542969 165.265625 Z M 112.507812 150.378906 L 105.980469 156.699219 L 99.453125 150.378906 L 105.980469 143.851562 Z M 114.542969 148.136719 L 108.019531 141.605469 L 114.542969 135.285156 L 121.070312 141.605469 Z M 116.585938 184.644531 L 123.109375 178.117188 L 129.636719 184.644531 L 123.109375 190.96875 Z M 114.542969 182.398438 L 108.019531 176.078125 L 114.542969 169.550781 L 121.070312 176.078125 Z M 105.980469 178.117188 L 112.507812 184.644531 L 105.980469 190.96875 L 99.453125 184.4375 Z M 112.507812 167.304688 L 105.980469 173.835938 L 99.453125 167.304688 L 105.980469 160.984375 Z M 123.109375 173.835938 L 116.585938 167.304688 L 123.109375 160.984375 L 129.636719 167.304688 Z M 133.714844 184.644531 L 140.246094 178.117188 L 146.773438 184.644531 L 140.246094 190.96875 Z M 138.210938 176.078125 L 131.679688 182.398438 L 125.355469 176.078125 L 131.679688 169.550781 Z M 140.246094 173.835938 L 133.714844 167.304688 L 140.246094 160.984375 L 146.773438 167.304688 Z M 175.324219 160.167969 L 181.652344 153.84375 L 186.746094 158.742188 L 180.222656 165.265625 Z M 181.652344 149.5625 L 175.324219 143.03125 L 181.652344 136.710938 L 188.175781 143.03125 Z M 173.082031 145.277344 L 179.609375 151.804688 L 173.082031 158.128906 L 166.761719 151.804688 Z M 157.988281 160.375 L 164.515625 153.84375 L 171.042969 160.375 L 164.515625 166.898438 Z M 155.953125 158.128906 L 149.421875 151.804688 L 155.953125 145.277344 L 162.476562 151.804688 Z M 147.378906 153.84375 L 153.914062 160.375 L 148.8125 165.265625 L 142.285156 158.742188 Z M 153.914062 143.03125 L 147.378906 149.5625 L 140.859375 143.03125 L 147.378906 136.710938 Z M 164.515625 149.5625 L 157.988281 143.03125 L 164.515625 136.710938 L 171.042969 143.03125 Z M 164.515625 180.972656 L 159.417969 176.078125 L 164.515625 170.980469 L 169.613281 176.078125 Z M 157.378906 178.117188 L 162.476562 183.011719 L 155.953125 189.539062 L 151.058594 184.4375 Z M 155.335938 176.078125 L 148.8125 182.398438 L 142.285156 176.078125 L 148.8125 169.550781 Z M 162.476562 168.734375 L 157.378906 173.835938 L 151.058594 167.304688 L 155.953125 162.410156 Z M 178.179688 167.304688 L 171.65625 173.835938 L 166.761719 168.734375 L 173.082031 162.410156 Z M 171.65625 178.117188 L 178.179688 184.644531 L 173.082031 189.539062 L 166.761719 183.011719 Z M 186.746094 176.078125 L 180.222656 182.398438 L 173.695312 176.078125 L 180.222656 169.550781 Z M 181.652344 198.101562 L 175.324219 191.78125 L 180.222656 186.683594 L 186.746094 193.207031 Z M 175.324219 208.714844 L 181.652344 202.386719 L 188.175781 208.714844 L 181.652344 215.238281 Z M 179.609375 200.347656 L 173.082031 206.875 L 166.761719 200.347656 L 173.082031 193.824219 Z M 157.988281 208.714844 L 164.515625 202.386719 L 171.042969 208.714844 L 164.515625 215.238281 Z M 155.953125 206.875 L 149.421875 200.347656 L 155.953125 193.824219 L 162.476562 200.347656 Z M 147.378906 202.386719 L 153.914062 208.714844 L 147.378906 215.238281 L 140.859375 208.714844 Z M 153.914062 191.78125 L 147.378906 198.101562 L 142.285156 193.207031 L 148.8125 186.683594 Z M 164.515625 198.101562 L 157.988281 191.78125 L 164.515625 185.257812 L 171.042969 191.78125 Z M 164.515625 232.574219 L 157.988281 226.046875 L 164.515625 219.523438 L 171.042969 226.046875 Z M 153.914062 226.046875 L 147.378906 232.574219 L 140.859375 226.046875 L 147.378906 219.523438 Z M 149.421875 234.410156 L 155.953125 228.089844 L 162.476562 234.617188 L 155.953125 241.140625 Z M 155.953125 223.804688 L 149.421875 217.484375 L 155.953125 210.953125 L 162.476562 217.484375 Z M 179.609375 217.484375 L 173.082031 223.804688 L 166.761719 217.484375 L 173.082031 210.953125 Z M 175.324219 226.046875 L 181.652344 219.523438 L 188.175781 226.046875 L 181.652344 232.574219 Z M 173.082031 228.089844 L 179.609375 234.617188 L 173.082031 241.140625 L 166.761719 234.617188 Z M 131.679688 203.816406 L 136.78125 208.714844 L 130.25 215.238281 L 125.355469 210.140625 Z M 140.246094 195.25 L 145.339844 200.347656 L 138.816406 206.875 L 133.714844 201.773438 Z M 138.210938 193.207031 L 131.679688 199.535156 L 125.355469 193.207031 L 131.679688 186.683594 Z M 123.109375 208.101562 L 116.585938 201.773438 L 123.109375 195.25 L 129.636719 201.773438 Z M 108.019531 210.339844 L 114.542969 203.816406 L 121.070312 210.339844 L 114.542969 216.871094 Z M 112.507812 201.773438 L 105.980469 208.101562 L 99.453125 201.773438 L 105.980469 195.25 Z M 114.542969 199.535156 L 108.019531 193.207031 L 114.542969 186.683594 L 121.070312 193.207031 Z M 115.15625 234.617188 L 121.683594 228.089844 L 128.007812 234.617188 L 121.683594 241.140625 Z M 112.507812 218.910156 L 105.980469 225.230469 L 99.453125 218.910156 L 105.980469 212.378906 Z M 105.980469 229.515625 L 111.078125 234.410156 L 104.546875 241.140625 L 99.453125 236.042969 Z M 113.117188 232.574219 L 108.019531 227.476562 L 114.542969 220.949219 L 119.644531 226.046875 Z M 121.683594 223.804688 L 116.585938 218.910156 L 123.109375 212.378906 L 128.007812 217.484375 Z M 130.25 219.523438 L 136.78125 226.046875 L 130.25 232.574219 L 123.722656 226.046875 Z M 138.816406 228.089844 L 145.339844 234.617188 L 138.816406 241.140625 L 132.289062 234.617188 Z M 145.339844 217.484375 L 138.816406 223.804688 L 132.289062 217.484375 L 138.816406 210.953125 Z M 130.25 253.785156 L 136.78125 260.316406 L 130.25 266.839844 L 123.722656 260.316406 Z M 138.816406 245.21875 L 145.339844 251.746094 L 138.816406 258.277344 L 132.289062 251.746094 Z M 136.78125 243.183594 L 130.25 249.503906 L 123.722656 243.183594 L 130.25 236.652344 Z M 121.683594 258.277344 L 115.15625 251.746094 L 121.683594 245.21875 L 128.210938 251.746094 Z M 106.589844 260.316406 L 113.117188 253.785156 L 119.644531 260.316406 L 113.117188 266.839844 Z M 113.117188 249.503906 L 106.589844 243.183594 L 113.117188 236.652344 L 119.644531 243.183594 Z M 121.683594 275.203125 L 115.15625 268.882812 L 121.683594 262.355469 L 128.210938 268.882812 Z M 115.15625 286.011719 L 121.683594 279.488281 L 128.007812 286.011719 L 121.683594 292.539062 Z M 113.117188 283.972656 L 106.589844 277.445312 L 113.117188 270.921875 L 119.644531 277.445312 Z M 130.25 270.921875 L 136.78125 277.445312 L 130.25 283.972656 L 123.722656 277.445312 Z M 145.339844 268.882812 L 138.816406 275.203125 L 132.289062 268.882812 L 138.816406 262.355469 Z M 138.816406 279.488281 L 145.339844 286.011719 L 138.816406 292.539062 L 132.289062 286.011719 Z M 175.324219 260.316406 L 181.652344 253.785156 L 188.175781 260.316406 L 181.652344 266.839844 Z M 173.082031 245.21875 L 179.609375 251.746094 L 173.082031 258.277344 L 166.761719 251.746094 Z M 181.652344 249.503906 L 175.324219 243.183594 L 181.652344 236.652344 L 188.175781 243.183594 Z M 157.988281 260.316406 L 164.515625 253.785156 L 171.042969 260.316406 L 164.515625 266.839844 Z M 155.953125 258.277344 L 149.421875 251.746094 L 155.953125 245.21875 L 162.476562 251.746094 Z M 147.378906 253.785156 L 153.914062 260.316406 L 147.378906 266.839844 L 140.859375 260.316406 Z M 153.914062 243.183594 L 147.378906 249.503906 L 140.859375 243.183594 L 147.378906 236.652344 Z M 164.515625 249.503906 L 157.988281 243.183594 L 164.515625 236.652344 L 171.042969 243.183594 Z M 155.953125 275.203125 L 149.421875 268.882812 L 155.953125 262.355469 L 162.476562 268.882812 Z M 164.515625 283.972656 L 157.988281 277.445312 L 164.515625 270.921875 L 171.042969 277.445312 Z M 149.421875 286.011719 L 155.953125 279.488281 L 162.476562 286.011719 L 155.953125 292.539062 Z M 153.914062 277.445312 L 147.378906 283.972656 L 140.859375 277.445312 L 147.378906 270.921875 Z M 175.324219 277.445312 L 181.652344 270.921875 L 188.175781 277.445312 L 181.652344 283.972656 Z M 173.082031 279.488281 L 179.609375 286.011719 L 173.082031 292.539062 L 166.761719 286.011719 Z M 179.609375 268.882812 L 173.082031 275.203125 L 166.761719 268.882812 L 173.082031 262.355469 Z M 103.941406 193.207031 L 97.414062 199.535156 L 90.882812 193.207031 L 97.414062 186.683594 Z M 85.785156 198.308594 L 88.84375 195.25 L 95.375 201.773438 L 88.84375 208.101562 L 85.785156 205.039062 Z M 85.785156 192.1875 L 86.804688 193.207031 L 85.785156 194.230469 Z M 85.785156 211.363281 L 85.785156 209.121094 L 86.804688 210.339844 Z M 97.414062 203.816406 L 103.734375 210.339844 L 97.414062 216.871094 L 90.882812 210.339844 Z M 85.785156 222.171875 L 85.785156 215.445312 L 88.84375 212.378906 L 95.375 218.910156 L 88.84375 225.230469 Z M 86.804688 227.476562 L 85.785156 228.496094 L 85.785156 226.457031 Z M 88.84375 229.515625 L 95.375 236.042969 L 88.84375 242.566406 L 85.785156 239.308594 L 85.785156 232.777344 Z M 103.941406 227.476562 L 97.414062 234.003906 L 90.882812 227.476562 L 97.414062 220.949219 Z M 97.414062 238.082031 L 102.308594 243.183594 L 95.980469 249.503906 L 90.882812 244.605469 Z M 86.804688 244.605469 L 85.785156 245.628906 L 85.785156 243.589844 Z M 85.785156 249.707031 L 88.84375 246.648438 L 93.746094 251.746094 L 87.214844 258.277344 L 85.785156 256.4375 Z M 104.546875 258.277344 L 98.023438 251.746094 L 104.546875 245.21875 L 111.078125 251.746094 Z M 95.980469 253.785156 L 102.308594 260.316406 L 95.980469 266.839844 L 89.457031 260.316406 Z M 85.785156 273.777344 L 85.785156 263.984375 L 87.417969 262.355469 L 93.945312 268.882812 L 87.214844 275.203125 Z M 87.417969 279.488281 L 93.945312 286.011719 L 88.84375 290.910156 L 85.785156 287.644531 L 85.785156 281.320312 Z M 102.308594 277.445312 L 95.980469 283.972656 L 89.457031 277.445312 L 95.980469 270.921875 Z M 98.023438 286.011719 L 104.546875 279.488281 L 111.078125 286.011719 L 104.546875 292.539062 Z M 104.546875 275.203125 L 98.023438 268.882812 L 104.546875 262.355469 L 111.078125 268.882812 Z M 95.980469 288.050781 L 102.308594 294.578125 L 97.617188 299.476562 L 91.089844 292.949219 Z M 85.785156 298.457031 L 88.84375 295.191406 L 95.375 301.515625 L 88.84375 308.039062 L 85.785156 304.773438 Z M 85.785156 294.171875 L 85.785156 291.722656 L 87.011719 292.949219 Z M 85.785156 311.308594 L 85.785156 308.855469 L 87.011719 310.082031 Z M 97.617188 303.554688 L 103.941406 310.082031 L 97.617188 316.605469 L 91.089844 310.082031 Z M 99.65625 301.515625 L 104.546875 296.617188 L 111.078125 303.148438 L 106.183594 308.039062 Z M 88.84375 325.171875 L 85.785156 321.910156 L 85.785156 315.386719 L 88.84375 312.320312 L 95.375 318.644531 Z M 87.011719 327.417969 L 85.785156 328.4375 L 85.785156 326.195312 Z M 85.785156 332.71875 L 88.84375 329.253906 L 95.375 335.78125 L 88.84375 342.308594 L 85.988281 339.25 C 85.785156 338.023438 85.582031 336.59375 85.785156 335.167969 Z M 103.941406 327.417969 L 97.617188 333.742188 L 91.089844 327.417969 L 97.617188 320.890625 Z M 97.617188 338.023438 L 103.941406 344.347656 L 97.617188 350.875 L 91.089844 344.347656 Z M 88.230469 347.199219 L 88.84375 346.59375 L 95.375 353.113281 L 93.945312 354.546875 C 93.535156 354.339844 93.335938 354.140625 92.925781 353.730469 C 91.089844 351.6875 89.457031 349.445312 88.230469 347.199219 Z M 102.308594 360.050781 C 100.066406 359.03125 98.023438 358.011719 96.191406 356.585938 L 97.617188 355.15625 Z M 181.652344 301.109375 L 175.324219 294.578125 L 181.652344 288.050781 L 188.175781 294.578125 Z M 173.082031 296.617188 L 179.609375 303.148438 L 173.082031 309.675781 L 166.761719 303.148438 Z M 175.121094 311.714844 L 181.652344 305.1875 L 188.175781 311.714844 L 181.652344 318.238281 Z M 157.988281 294.578125 L 164.515625 288.050781 L 171.042969 294.578125 L 164.515625 301.109375 Z M 147.378906 288.050781 L 153.914062 294.578125 L 147.378906 301.109375 L 140.859375 294.578125 Z M 147.378906 305.1875 L 153.914062 311.714844 L 147.378906 318.238281 L 140.859375 311.714844 Z M 155.953125 309.675781 L 149.421875 303.148438 L 155.953125 296.617188 L 162.476562 303.148438 Z M 157.988281 311.714844 L 164.515625 305.1875 L 171.042969 311.714844 L 164.515625 318.238281 Z M 149.421875 320.28125 L 155.953125 313.960938 L 162.476562 320.28125 L 155.953125 326.804688 Z M 149.421875 337.410156 L 155.953125 330.882812 L 162.476562 337.410156 L 155.953125 343.941406 Z M 153.914062 328.847656 L 147.378906 335.371094 L 140.859375 328.847656 L 147.378906 322.316406 Z M 164.515625 335.371094 L 157.988281 328.847656 L 164.515625 322.316406 L 171.042969 328.847656 Z M 175.324219 328.847656 L 181.652344 322.316406 L 188.175781 328.847656 L 181.652344 335.371094 Z M 179.609375 320.28125 L 173.082031 326.804688 L 166.761719 320.28125 L 173.082031 313.960938 Z M 173.082031 330.882812 L 179.609375 337.410156 L 173.082031 343.941406 L 166.761719 337.410156 Z M 136.78125 294.578125 L 130.25 301.109375 L 123.722656 294.578125 L 130.25 288.050781 Z M 138.816406 296.617188 L 145.339844 303.148438 L 138.816406 309.675781 L 132.289062 303.148438 Z M 130.25 305.1875 L 136.78125 311.714844 L 130.25 318.238281 L 123.722656 311.714844 Z M 106.589844 294.578125 L 113.117188 288.050781 L 119.644531 294.578125 L 113.117188 301.109375 Z M 108.222656 310.082031 L 113.117188 305.1875 L 119.644531 311.714844 L 114.746094 316.605469 Z M 115.15625 303.148438 L 121.683594 296.617188 L 128.210938 303.148438 L 121.683594 309.675781 Z M 116.785156 318.644531 L 121.683594 313.960938 L 128.210938 320.28125 L 123.316406 325.171875 Z M 112.707031 318.644531 L 106.183594 325.171875 L 99.65625 318.644531 L 106.183594 312.320312 Z M 106.183594 329.253906 L 112.707031 335.78125 L 106.183594 342.308594 L 99.65625 335.78125 Z M 114.746094 333.742188 L 108.222656 327.417969 L 114.542969 320.890625 L 121.277344 327.417969 Z M 116.785156 335.78125 L 123.316406 329.253906 L 129.636719 335.78125 L 123.316406 342.308594 Z M 130.25 322.316406 L 136.78125 328.847656 L 131.882812 333.742188 L 125.355469 327.417969 Z M 138.816406 330.882812 L 145.339844 337.410156 L 140.449219 342.308594 L 133.925781 335.78125 Z M 138.816406 313.960938 L 145.339844 320.28125 L 138.816406 326.804688 L 132.289062 320.28125 Z M 133.925781 353.113281 L 140.449219 346.59375 L 146.976562 353.113281 L 140.449219 359.441406 Z M 131.882812 354.953125 L 138.210938 361.480469 L 125.558594 361.480469 Z M 138.410156 344.347656 L 131.882812 350.875 L 125.355469 344.347656 L 131.882812 338.023438 Z M 108.222656 344.347656 L 114.746094 338.023438 L 121.277344 344.347656 L 114.746094 350.875 Z M 112.707031 353.113281 L 106.183594 359.441406 L 99.65625 353.113281 L 106.183594 346.59375 Z M 108.628906 361.273438 L 114.746094 355.15625 L 121.070312 361.480469 L 110.875 361.480469 C 110.058594 361.480469 109.242188 361.480469 108.628906 361.273438 Z M 123.316406 359.441406 L 116.785156 353.113281 L 123.316406 346.59375 L 129.636719 353.113281 Z M 181.652344 339.65625 L 186.546875 344.347656 L 180.222656 350.875 L 175.324219 345.980469 Z M 180.222656 354.953125 L 186.339844 361.480469 L 173.894531 361.480469 Z M 173.082031 348.21875 L 177.976562 353.113281 L 171.453125 359.441406 L 166.761719 354.546875 Z M 157.988281 345.980469 L 164.515625 339.65625 L 171.042969 345.980469 L 164.515625 352.507812 Z M 147.378906 339.65625 L 153.914062 345.980469 L 149.019531 350.875 L 142.488281 344.347656 Z M 149.019531 355.15625 L 155.136719 361.480469 L 142.691406 361.480469 Z M 159.828125 361.480469 L 164.515625 356.585938 L 169.207031 361.480469 Z M 162.476562 354.546875 L 157.582031 359.441406 L 151.058594 353.113281 L 155.953125 348.21875 Z M 289.339844 192.800781 L 289.339844 193.417969 L 283.222656 199.535156 L 276.695312 193.207031 L 283.222656 186.683594 Z M 289.339844 209.933594 L 289.339844 210.546875 L 283.222656 216.871094 L 276.695312 210.140625 L 283.222656 203.816406 Z M 289.339844 205.855469 L 285.261719 201.773438 L 289.339844 197.492188 Z M 280.980469 201.773438 L 274.449219 208.101562 L 268.128906 201.773438 L 274.449219 195.25 Z M 285.261719 218.910156 L 289.339844 214.832031 L 289.339844 222.78125 Z M 289.339844 227.683594 L 283.222656 234.003906 L 276.695312 227.476562 L 283.222656 220.949219 L 289.339844 227.066406 Z M 285.261719 236.042969 L 289.339844 231.960938 L 289.339844 240.121094 Z M 280.980469 218.910156 L 274.449219 225.230469 L 268.128906 218.910156 L 274.449219 212.378906 Z M 274.449219 229.515625 L 280.980469 236.042969 L 274.449219 242.566406 L 268.128906 236.042969 Z M 287.914062 242.972656 L 281.59375 249.503906 L 276.695312 244.605469 L 283.222656 238.082031 Z M 279.550781 251.546875 L 273.023438 258.070312 L 268.128906 253.171875 L 274.449219 246.648438 Z M 289.339844 257.253906 L 283.636719 251.546875 L 289.339844 245.832031 Z M 281.59375 253.585938 L 287.914062 260.109375 L 281.59375 266.636719 L 275.066406 260.109375 Z M 283.636719 268.675781 L 289.339844 262.964844 L 289.339844 274.386719 Z M 273.023438 279.28125 L 279.351562 285.808594 L 274.449219 290.910156 L 267.925781 284.382812 Z M 287.914062 277.242188 L 281.59375 283.765625 L 275.066406 277.242188 L 281.59375 270.921875 Z M 283.636719 285.808594 L 289.339844 280.097656 L 289.339844 291.523438 Z M 279.351562 268.675781 L 273.023438 275.203125 L 266.5 268.675781 L 273.023438 262.148438 Z M 265.886719 199.535156 L 259.5625 193.207031 L 265.886719 186.683594 L 272.410156 193.207031 Z M 263.84375 201.773438 L 257.523438 208.101562 L 251 201.773438 L 257.523438 195.25 Z M 259.5625 210.339844 L 265.886719 203.816406 L 272.410156 210.339844 L 265.886719 216.871094 Z M 246.714844 201.773438 L 240.1875 208.101562 L 233.867188 201.773438 L 240.1875 195.25 Z M 242.429688 210.339844 L 248.753906 203.816406 L 255.277344 210.339844 L 248.753906 216.871094 Z M 231.824219 203.816406 L 238.152344 210.339844 L 231.824219 216.871094 L 225.300781 210.140625 Z M 238.152344 193.207031 L 231.824219 199.535156 L 225.300781 193.207031 L 231.824219 186.683594 Z M 248.753906 199.535156 L 242.429688 193.207031 L 248.753906 186.683594 L 255.277344 193.207031 Z M 246.714844 218.910156 L 240.1875 225.230469 L 233.867188 218.910156 L 240.1875 212.378906 Z M 240.1875 229.515625 L 246.714844 236.042969 L 240.1875 242.566406 L 233.867188 236.042969 Z M 248.753906 234.003906 L 242.429688 227.476562 L 248.753906 220.949219 L 255.277344 227.476562 Z M 238.152344 227.476562 L 231.824219 234.003906 L 225.300781 227.476562 L 231.824219 220.949219 Z M 263.84375 218.910156 L 257.523438 225.230469 L 251 218.910156 L 257.523438 212.378906 Z M 265.886719 234.003906 L 259.5625 227.476562 L 265.886719 220.949219 L 272.410156 227.476562 Z M 251 236.042969 L 257.523438 229.515625 L 263.84375 236.042969 L 257.523438 242.566406 Z M 221.011719 193.207031 L 214.488281 199.535156 L 207.960938 193.207031 L 214.488281 186.683594 Z M 214.488281 203.816406 L 221.011719 210.339844 L 214.488281 216.871094 L 207.960938 210.339844 Z M 216.734375 201.773438 L 223.054688 195.25 L 229.578125 201.773438 L 223.054688 208.101562 Z M 205.921875 208.101562 L 199.394531 201.773438 L 205.921875 195.25 L 212.449219 201.773438 Z M 192.460938 208.714844 L 197.355469 203.816406 L 203.882812 210.339844 L 198.785156 215.238281 Z M 195.316406 201.773438 L 190.210938 206.875 L 183.691406 200.347656 L 188.785156 195.25 Z M 197.355469 199.535156 L 191.03125 193.207031 L 197.355469 186.683594 L 203.882812 193.207031 Z M 205.308594 226.046875 L 198.785156 232.574219 L 192.460938 226.046875 L 198.785156 219.523438 Z M 201.027344 234.410156 L 207.554688 228.089844 L 213.875 234.617188 L 207.554688 241.140625 Z M 190.210938 228.089844 L 196.742188 234.617188 L 190.210938 241.140625 L 183.691406 234.617188 Z M 196.742188 217.484375 L 190.210938 223.804688 L 183.691406 217.484375 L 190.210938 210.953125 Z M 207.554688 223.804688 L 201.027344 217.484375 L 205.921875 212.378906 L 212.449219 218.910156 Z M 218.160156 234.617188 L 223.054688 229.515625 L 229.578125 236.042969 L 224.484375 241.140625 Z M 223.054688 225.230469 L 216.734375 218.910156 L 223.054688 212.378906 L 229.578125 218.910156 Z M 215.914062 232.574219 L 209.386719 226.046875 L 214.488281 220.949219 L 221.011719 227.476562 Z M 222.445312 243.183594 L 215.914062 249.503906 L 209.386719 243.183594 L 215.914062 236.652344 Z M 215.914062 253.785156 L 222.445312 260.316406 L 215.914062 266.839844 L 209.386719 260.316406 Z M 224.484375 258.277344 L 218.160156 251.746094 L 224.484375 245.21875 L 231.011719 251.746094 Z M 198.785156 253.785156 L 205.308594 260.316406 L 198.785156 266.839844 L 192.460938 260.316406 Z M 207.554688 258.277344 L 201.027344 251.746094 L 207.554688 245.21875 L 213.875 251.746094 Z M 196.742188 251.746094 L 190.210938 258.277344 L 183.691406 251.746094 L 190.210938 245.21875 Z M 205.308594 243.183594 L 198.785156 249.503906 L 192.460938 243.183594 L 198.785156 236.652344 Z M 207.554688 275.203125 L 201.027344 268.882812 L 207.554688 262.355469 L 213.875 268.882812 Z M 196.742188 268.882812 L 190.210938 275.203125 L 183.691406 268.882812 L 190.210938 262.355469 Z M 201.027344 286.011719 L 207.554688 279.488281 L 213.875 286.011719 L 207.554688 292.539062 Z M 205.308594 277.445312 L 198.785156 283.972656 L 192.460938 277.445312 L 198.785156 270.921875 Z M 190.210938 279.488281 L 196.742188 286.011719 L 190.210938 292.539062 L 183.691406 286.011719 Z M 218.160156 286.011719 L 224.484375 279.488281 L 231.011719 286.011719 L 224.484375 292.539062 Z M 224.484375 275.203125 L 218.160156 268.882812 L 224.484375 262.355469 L 231.011719 268.882812 Z M 215.914062 283.972656 L 209.386719 277.445312 L 215.914062 270.921875 L 222.445312 277.445312 Z M 265.886719 250.929688 L 259.5625 244.605469 L 265.886719 238.082031 L 272.410156 244.605469 Z M 263.84375 253.171875 L 257.523438 259.703125 L 251 253.171875 L 257.523438 246.648438 Z M 259.5625 261.742188 L 265.886719 255.214844 L 270.984375 260.109375 L 264.457031 266.636719 Z M 242.429688 244.605469 L 248.753906 238.082031 L 255.277344 244.605469 L 248.753906 251.132812 Z M 238.152344 244.605469 L 233.25 249.503906 L 226.726562 243.183594 L 231.824219 238.082031 Z M 243.855469 260.316406 L 248.753906 255.214844 L 255.277344 261.742188 L 250.179688 266.839844 Z M 246.714844 253.171875 L 241.816406 258.277344 L 235.085938 251.746094 L 240.1875 246.648438 Z M 233.25 253.785156 L 239.578125 260.316406 L 233.25 266.839844 L 226.726562 260.316406 Z M 241.816406 275.203125 L 235.289062 268.882812 L 241.816406 262.355469 L 248.140625 268.882812 Z M 239.578125 277.445312 L 233.25 283.972656 L 226.726562 277.445312 L 233.25 270.921875 Z M 241.816406 279.488281 L 246.714844 284.382812 L 240.1875 290.910156 L 235.289062 286.011719 Z M 248.753906 282.339844 L 243.855469 277.445312 L 250.179688 270.921875 L 255.277344 275.816406 Z M 257.320312 273.777344 L 252.425781 268.882812 L 257.523438 263.78125 L 262.210938 268.675781 Z M 250.792969 284.382812 L 257.320312 277.851562 L 263.644531 284.382812 L 257.320312 290.910156 Z M 265.886719 282.339844 L 259.359375 275.816406 L 264.253906 270.921875 L 270.785156 277.242188 Z M 265.886719 299.476562 L 259.359375 292.949219 L 265.886719 286.625 L 272.410156 292.949219 Z M 263.644531 301.515625 L 257.320312 308.039062 L 250.792969 301.515625 L 257.320312 295.191406 Z M 259.359375 310.082031 L 265.886719 303.554688 L 272.410156 310.082031 L 265.886719 316.605469 Z M 248.546875 299.476562 L 242.226562 292.949219 L 248.546875 286.625 L 255.078125 292.949219 Z M 237.941406 292.949219 L 231.621094 299.476562 L 226.726562 294.578125 L 233.25 288.050781 Z M 231.621094 303.554688 L 237.941406 310.082031 L 231.621094 316.605469 L 225.089844 310.082031 Z M 246.714844 301.515625 L 240.1875 308.039062 L 233.660156 301.515625 L 240.1875 295.191406 Z M 242.226562 310.082031 L 248.546875 303.554688 L 255.078125 310.082031 L 248.546875 316.605469 Z M 248.753906 333.742188 L 242.226562 327.417969 L 248.753906 320.890625 L 255.277344 327.417969 Z M 240.1875 329.253906 L 246.714844 335.78125 L 240.1875 342.308594 L 233.660156 335.78125 Z M 237.941406 327.417969 L 231.621094 333.742188 L 225.089844 327.417969 L 231.621094 320.890625 Z M 246.714844 318.644531 L 240.1875 325.171875 L 233.660156 318.644531 L 240.1875 312.320312 Z M 265.886719 333.742188 L 259.359375 327.417969 L 265.886719 320.890625 L 272.410156 327.417969 Z M 250.792969 335.78125 L 257.320312 329.253906 L 263.644531 335.78125 L 257.320312 342.308594 Z M 257.320312 325.171875 L 250.792969 318.644531 L 257.320312 312.320312 L 263.644531 318.644531 Z M 218.160156 303.148438 L 224.484375 296.617188 L 229.578125 301.515625 L 223.054688 308.039062 Z M 215.914062 301.109375 L 209.386719 294.578125 L 215.914062 288.050781 L 222.445312 294.578125 Z M 215.914062 305.1875 L 221.011719 310.082031 L 214.488281 316.605469 L 209.386719 311.714844 Z M 198.785156 288.050781 L 205.308594 294.578125 L 198.785156 301.109375 L 192.460938 294.578125 Z M 196.742188 303.148438 L 190.210938 309.675781 L 183.691406 303.148438 L 190.210938 296.617188 Z M 207.554688 309.675781 L 201.027344 303.148438 L 207.554688 296.617188 L 213.875 303.148438 Z M 198.785156 305.1875 L 205.308594 311.714844 L 198.785156 318.238281 L 192.460938 311.714844 Z M 201.027344 320.28125 L 207.554688 313.960938 L 212.246094 318.644531 L 205.921875 325.171875 Z M 190.210938 313.960938 L 196.742188 320.28125 L 190.210938 326.804688 L 183.691406 320.28125 Z M 190.210938 330.882812 L 195.109375 335.78125 L 188.785156 342.308594 L 183.691406 337.410156 Z M 197.152344 333.742188 L 192.460938 328.847656 L 198.785156 322.316406 L 203.675781 327.417969 Z M 199.394531 335.78125 L 205.921875 329.253906 L 212.246094 335.78125 L 205.921875 342.308594 Z M 214.285156 320.890625 L 220.8125 327.417969 L 214.285156 333.742188 L 207.757812 327.417969 Z M 216.527344 335.78125 L 222.851562 329.253906 L 229.375 335.78125 L 222.851562 342.308594 Z M 222.851562 325.171875 L 216.527344 318.644531 L 222.851562 312.320312 L 229.375 318.644531 Z M 220.8125 361.480469 L 208.167969 361.480469 L 214.488281 355.15625 Z M 216.527344 353.113281 L 223.054688 346.59375 L 229.578125 353.113281 L 222.851562 359.441406 Z M 214.488281 338.023438 L 221.011719 344.347656 L 214.285156 350.875 L 207.757812 344.347656 Z M 190.824219 344.347656 L 197.152344 338.023438 L 203.675781 344.347656 L 197.152344 350.875 Z M 195.109375 353.113281 L 188.585938 359.441406 L 182.054688 353.113281 L 188.585938 346.59375 Z M 191.03125 361.480469 L 197.152344 355.15625 L 203.472656 361.480469 Z M 205.921875 359.441406 L 199.394531 353.113281 L 205.921875 346.59375 L 212.246094 353.113281 Z M 265.886719 350.875 L 259.359375 344.347656 L 265.886719 338.023438 L 272.410156 344.347656 Z M 263.644531 353.113281 L 257.320312 359.441406 L 250.792969 353.113281 L 257.320312 346.59375 Z M 259.5625 361.480469 L 265.886719 355.15625 L 271.191406 360.460938 C 268.945312 361.070312 266.703125 361.480469 264.050781 361.480469 Z M 242.226562 344.347656 L 248.546875 338.023438 L 255.277344 344.347656 L 248.753906 350.875 Z M 231.621094 338.023438 L 237.941406 344.347656 L 231.621094 350.875 L 225.089844 344.347656 Z M 231.621094 354.953125 L 237.738281 361.480469 L 225.300781 361.480469 Z M 242.429688 361.480469 L 248.546875 355.15625 L 254.871094 361.480469 Z M 246.714844 353.113281 L 240.1875 359.441406 L 233.660156 353.113281 L 240.1875 346.59375 Z M 287.914062 294.378906 L 283.019531 299.476562 L 276.488281 292.949219 L 281.59375 287.847656 Z M 289.339844 305.800781 L 285.0625 301.515625 L 289.339844 297.4375 Z M 289.339844 309.878906 L 289.339844 310.285156 L 283.019531 316.605469 L 276.488281 310.082031 L 283.019531 303.554688 Z M 280.980469 301.515625 L 274.449219 308.039062 L 267.925781 301.515625 L 274.449219 295.191406 Z M 285.0625 318.644531 L 289.339844 314.566406 L 289.339844 322.933594 Z M 289.339844 331.703125 L 289.339844 335.167969 C 289.339844 336.796875 289.136719 338.230469 288.9375 339.65625 L 285.0625 335.78125 Z M 289.339844 327.417969 L 283.019531 333.742188 L 276.488281 327.417969 L 283.019531 320.890625 L 289.339844 327.210938 Z M 280.980469 318.644531 L 274.449219 325.171875 L 267.925781 318.644531 L 274.449219 312.320312 Z M 274.449219 329.253906 L 280.980469 335.78125 L 274.449219 342.308594 L 267.925781 335.78125 Z M 274.859375 359.03125 C 274.660156 359.03125 274.449219 359.230469 274.25 359.230469 L 267.925781 353.113281 L 274.449219 346.59375 L 280.980469 353.113281 Z M 283.019531 338.023438 L 288.121094 343.121094 C 287.714844 344.554688 287.300781 345.980469 286.488281 347.410156 L 283.019531 350.875 L 276.488281 344.347656 L 283.019531 338.023438"/><path fill="#C1B8B3" d="M 300.558594 8.21875 C 296.277344 4.339844 291.382812 1.6875 286.082031 0.667969 C 283.835938 0.257812 281.59375 0.0585938 279.351562 0.0585938 L 95.78125 0.0585938 C 93.335938 0.0585938 91.089844 0.257812 88.84375 0.667969 C 83.542969 1.6875 78.644531 4.339844 74.363281 8.21875 C 68.652344 13.722656 65.597656 20.453125 65.597656 28.199219 L 65.597656 346.792969 C 65.597656 354.546875 68.652344 361.273438 74.363281 366.78125 C 80.28125 372.289062 87.214844 374.941406 95.78125 374.941406 L 279.351562 374.941406 C 287.714844 374.941406 294.644531 372.289062 300.558594 366.78125 C 306.476562 361.273438 309.328125 354.546875 309.328125 346.792969 L 309.328125 28.199219 C 309.328125 20.453125 306.476562 13.722656 300.558594 8.21875 Z M 297.914062 10.457031 C 303.617188 15.964844 306.476562 22.496094 306.476562 30.242188 L 306.476562 344.753906 C 306.476562 352.507812 303.617188 359.03125 297.914062 364.539062 C 292.199219 369.84375 285.261719 372.496094 277.105469 372.695312 L 97.820312 372.695312 C 89.664062 372.496094 82.726562 369.84375 77.019531 364.539062 C 71.308594 359.03125 68.449219 352.507812 68.449219 344.753906 L 68.449219 30.242188 C 68.449219 22.496094 71.308594 15.964844 77.019531 10.457031 C 82.726562 5.152344 89.664062 2.296875 97.820312 2.296875 L 277.105469 2.296875 C 285.261719 2.296875 292.199219 5.152344 297.914062 10.457031"/></g></svg>